<?xml version="1.0" encoding="UTF-8"?>
<!-- Created with Grafika (https://www.grafika.cc/) -->
<svg xmlns="http://www.w3.org/2000/svg" xmlns:svg="http://www.w3.org/2000/svg" xmlns:xlink="http://www.w3.org/1999/xlink" width="960" height="960" viewBox="0 0 320 320" preserveAspectRatio="xMidYMid meet">
	<path d="M33.46,38.07 L11.44,38.81 L12.09,193.15 L32.91,193.29 L33.2,163.07 L33.2,163.06 L33.48,134.71 L85.19,193.08 L112.77,193.6 C111.73,193.08 110.16,191.88 109.02,191.23 C111.78,192.81 114.85,193.87 118.24,194.23 C131.04,190.41 139.41,176.44 139.82,160 C139.91,152.26 139.01,144.53 135.5,140.03 L148.94,139.74 L148.81,192.45 L165.29,192.41 L165.56,137.9 L180.82,137.71 L180.99,192.28 L224.16,191.83 L224.32,180.51 L188.52,180.63 L188.33,162.54 L214.65,162.29 L214.61,155.07 L188.29,155.08 L188.38,137.65 L234.63,137.18 L235.01,202.68 C267.47,198.45 289.02,209.3 299.68,235.23 C295.04,250.71 278.14,270.47 245.38,280.36 C248.15,281.17 252.02,280.85 256.22,280.08 C256.44,280.04 256.78,280.04 256.97,280 C257.56,279.86 258.13,279.69 258.8,279.52 C279.63,274.54 310.3,254.5 310.82,235.41 C311,228.69 307.69,222.22 301.23,215.97 C299.99,214.75 298.38,213.38 296.92,212.18 C296.68,211.99 296.48,211.8 296.24,211.61 C296.01,211.43 295.7,211.14 295.51,210.99 C293.89,209.78 292.48,208.79 292.36,208.79 C292.36,208.79 292.36,208.92 292.36,208.92 C287.61,205.68 282.13,202.49 275.61,199.37 C273.44,198.34 271.03,197.2 269.73,196.65 C268.02,195.91 264.79,194.59 262.56,193.7 C262.55,193.7 262.55,193.7 262.54,193.7 C260.68,192.96 259.35,192.18 257.38,191.45 L276.53,168.42 L285.31,177.58 L280.37,163.16 L310.78,126.42 L251.26,126.1 L251.7,92.63 L234.38,92.7 L234.18,125.54 L165.78,126.37 L165.5,94.31 L149.23,94.07 L148.28,126.85 C135.65,126.82 124.98,126.33 116.28,125.37 C105.69,125.82 98.81,135.51 94.63,150.52 C94.45,151.2 94.24,151.89 94.12,152.39 C94,152.85 93.83,153.69 93.67,154.4 C93.23,156.31 92.64,157.94 92.27,160 C93.46,172.62 98.57,184.07 107.12,190.03 C88.21,178.73 57.7,152.54 36.12,128.11 C37.69,127.88 38.75,127.42 40.26,127.17 C41.67,126.93 43.22,126.67 44.37,126.46 C45.95,126.16 48.12,125.73 49.17,125.49 C50.23,125.26 52.08,124.82 53.29,124.52 C54.5,124.22 56.54,123.68 57.82,123.31 C58.17,123.21 58.67,123.03 59.11,122.9 C83.77,115.39 96.72,102.66 97.13,84.35 C95.04,63.53 78.71,50.71 54.21,43.17 C53.35,42.9 52.33,42.56 51.79,42.4 C50.58,42.06 48.23,41.44 46.57,41.03 C44.91,40.62 42.53,40.07 41.28,39.8 C40.32,39.6 38.78,39.31 37.43,39.05 C36.02,38.78 34.9,38.32 33.46,38.07 ZM34.24,51.3 C60.52,53.82 82.27,63.15 85.25,83.42 C82.45,102.49 65.14,116.95 33.34,126.81 L34.24,51.3 ZM116.55,129.69 C128.39,132.4 133.96,143.04 133.1,159.83 C132.49,176.94 127.49,187.62 118.11,191.87 C110.19,191.9 101.7,176.14 100.53,160 C100.97,144.58 104.64,132.98 116.55,129.69 ZM289.75,137.22 L276.59,153.79 L272.58,146.86 L259.45,146.79 L271.59,160 L252.29,186.79 L251.95,137.44 L289.75,137.22 Z" fill-rule="evenodd" style="fill:#000000;stroke:#FFFFFF00;stroke-linecap:round;stroke-linejoin:round;stroke-width:0.55;" />
	<g id="kana2">
		<path d="M161.13,38.07 L116.58,38.5 L120.1,83.67 L157.31,83.27 L161.13,38.07 ZM123.43,45.33 L153.91,45.5 L149.46,76.19 L127.78,76.54 L123.43,45.33 Z" fill-rule="evenodd" style="fill:#000000;stroke:#FFFFFF00;stroke-linecap:round;stroke-linejoin:round;stroke-width:0.55;" />
		<path d="M191.03,39.07 L191.59,45.77 L223.87,45.85 L224.26,39.23 L191.03,39.07 ZM180.65,55.46 L181.21,61.48 L207.61,61.51 L207.31,71.31 C202.57,80.04 196.48,85.46 189.85,86.92 L180.86,87.02 L181.08,94.19 L191.84,94.21 C199.47,93.85 210.74,82.87 213.84,72.18 L213.68,61.53 L235.42,61.14 L235.79,57.89 L229.26,54.68 L180.65,55.46 Z" fill-rule="evenodd" style="fill:#000000;stroke:#FFFFFF00;stroke-linecap:round;stroke-linejoin:round;stroke-width:0.55;" />
		<path d="M264.18,37.24 L268.62,60.73 L272.91,61.56 L272.62,37.28 L264.18,37.24 ZM256.26,38.07 L248.47,38.32 L250.56,62.63 L255.6,62.97 L256.26,38.07 ZM290.22,38.96 C290.45,42.46 290.33,45.83 289.61,48.94 C285.67,58.26 280.09,67.08 271.29,74.88 C265.86,79.69 260.58,82.32 255.52,82.3 L255.9,89.21 C260.37,89.15 262.12,88.88 267.05,87.66 C270.04,86.18 275.24,83.7 279.11,79.96 C289.6,67.62 297.28,55.63 298.95,45.52 L299.4,38.96 L290.22,38.96 Z" fill-rule="evenodd" style="fill:#000000;stroke:#FFFFFF00;stroke-linecap:round;stroke-linejoin:round;stroke-width:0.55;" />
	</g>
	<g transform="matrix(0.6342015862464905, 0, 0, 0.6342015862464905, 154.6687469482422, 263.8423156738281)">
		<path d="M-97.21,-44.91 Q-92.87,-43.29 -93.66,-40.88 Q-94.3,-38.33 -98.81,-38.33 Q-99.54,-37.09 -99.62,-37 L-79.71,-37 L-76.66,-40.96 L-70.58,-36.76 Q-66.12,-33.78 -67.48,-31.04 Q-69.48,-28.03 -72.15,-28.03 Q-85.24,-8.22 -104.38,3.53 L-104.34,2.67 L-68.6,2.67 L-65.14,-1.24 L-59.13,2.91 Q-54.68,5.89 -56.01,8.61 Q-57.51,11.11 -58.9,11.38 L-58.9,40.32 L-65.33,41.92 L-67.86,39.41 L-67.86,37.58 L-104.67,37.58 L-104.67,41.84 L-111.11,43.44 L-113.63,40.94 L-113.63,10.21 Q-118.43,13.4 -137.88,20.43 L-139.55,15.43 Q-119.43,8.18 -100.62,-7.44 Q-101.4,-6.93 -102.41,-8.96 Q-105.31,-14.42 -113.37,-20.76 L-111.25,-23.93 Q-97.9,-19.19 -95.35,-14.97 Q-94.47,-13.66 -94.94,-13.28 Q-84.74,-24.62 -80.73,-31.47 L-103.48,-31.47 Q-114.23,-17.02 -132.54,-2.76 L-136.45,-6.67 Q-116.04,-23.86 -104.93,-47.65 L-97.21,-44.91 ZM-104.67,32.05 L-67.86,32.05 L-67.86,8.2 L-104.67,8.2 L-104.67,32.05 ZM1.35,-44.98 Q6.39,-44.44 5.6,-41.31 Q5,-38.93 1.83,-38.24 L1.83,-26.7 L25.74,-26.7 L31.11,-32.06 L40.74,-25.65 L40.74,-21.17 L1.83,-21.17 L1.83,-1.14 L17.69,-1.14 L21.14,-5.05 L27.15,-0.9 Q31.61,2.08 30.27,4.8 Q28.77,7.3 27.39,7.56 L27.39,39.94 L20.95,41.53 L18.42,39.03 L18.42,36.05 L-24.11,36.05 L-24.11,41.46 L-30.54,43.06 L-33.07,40.56 L-33.07,-4.91 L-24.11,-1.14 L-7.13,-1.14 L-7.13,-21.17 L-45.66,-21.17 L-45.66,-26.7 L-7.13,-26.7 L-7.13,-46.41 L1.35,-44.98 ZM-24.11,30.52 L18.42,30.52 L18.42,4.39 L-24.11,4.39 L-24.11,30.52 ZM65.66,-40.81 L115.37,-40.81 L118.42,-44.77 L124.5,-40.57 Q129.1,-37.5 127.57,-35.19 Q126.14,-32.8 125.12,-32.54 L125.12,-18.81 L118.68,-17.21 L116.15,-19.71 L116.15,-20.79 L65.99,-20.79 L65.99,-14.49 L117.75,-14.49 L123.11,-19.86 L132.75,-13.44 L132.75,-8.96 L95.03,-8.96 L86.92,1.84 L111.84,1.24 Q110.31,-0.02 102.83,-3.76 L105.62,-7.51 Q122.66,-1.69 127.53,4.8 Q131.41,10.64 127.1,13.35 Q123.14,15.6 120.18,10.21 Q118.39,7.7 117.44,6.73 L75.53,10.76 Q75.53,12.23 73.22,13.4 Q70.26,14.86 68.59,10.4 L64.56,2.36 L79.27,1.93 L84.42,-8.96 L65.99,-8.96 L65.99,-8.87 Q65.99,23.34 49.57,41.41 L45.37,38.89 Q57.03,21.6 57.03,-8.87 L57.03,-45.13 L65.66,-40.81 ZM65.99,-26.32 L116.15,-26.32 L116.15,-35.28 L65.99,-35.28 L65.99,-26.32 ZM98.7,9.18 Q103.73,9.73 102.95,12.85 Q102.35,15.24 99.18,15.93 L99.18,18.31 L113.17,18.31 L118.18,13.31 L127.02,19.36 L127.02,23.84 L99.18,23.84 L99.18,34.72 L118.9,34.72 L124.26,29.35 L133.89,35.76 L133.89,40.25 L57.79,40.25 L57.79,34.72 L90.21,34.72 L90.21,23.84 L66.56,23.84 L66.56,18.31 L90.21,18.31 L90.21,7.75 L98.7,9.18 Z" fill="#000000" />
	</g>
	<g transform="matrix(0.6342015862464905, 0, 0, 0.6342015862464905, 33.635345458984375, 265.7950439453125)">
		<path d="M28.1,-28.63 Q38.11,-17.74 38.11,-5.08 Q38.11,6.88 27.97,15.25 Q22.15,20.19 16.17,20.19 Q6.21,20.19 6.49,14.29 Q1.53,20.61 -7.55,20.61 Q-14.02,20.61 -17.79,16.81 Q-22.42,12.21 -22.42,4.07 Q-22.42,-5.31 -13.19,-14.54 Q-4.79,-21.61 3.27,-21.61 Q10.32,-21.61 12.84,-18.08 L13.7,-22.26 L23.91,-20.47 L16.84,8.16 Q16.01,12.08 18.25,12.08 Q20.14,12.08 23.84,8.75 Q30.42,2.57 30.42,-5.08 Q30.42,-14.49 22.51,-23.98 Q14.27,-32.22 1.19,-32.22 Q-11.5,-32.22 -21.4,-22.71 Q-30.11,-13.22 -30.11,-0.5 Q-30.11,12.19 -21.43,21.26 Q-10.28,31.22 1.19,31.22 Q17.93,31.22 32.6,13.51 L37.41,17.54 Q21.96,38.91 1.19,38.91 Q-16.49,38.91 -28.16,28.1 Q-40.31,16.37 -40.31,-0.5 Q-40.31,-17.38 -28.16,-29.1 Q-16.46,-39.5 1.19,-39.5 Q17.23,-39.5 28.1,-28.63 ZM-2.29,-11.03 Q-11.39,-1.54 -11.39,6.99 Q-11.39,10.08 -9.78,11.72 Q-8.14,13.33 -5.88,13.33 Q1.11,13.33 8.05,1.4 L10.78,-8.74 Q8.44,-14.75 4.93,-14.75 Q1.79,-14.75 -2.29,-11.03 Z" fill="#000000" />
	</g>
</svg>