<?xml version="1.0" encoding="UTF-8"?>
<!-- Created with Grafika (https://www.grafika.cc/) -->
<svg xmlns="http://www.w3.org/2000/svg" xmlns:svg="http://www.w3.org/2000/svg" xmlns:xlink="http://www.w3.org/1999/xlink" width="960" height="960" viewBox="0 0 320 320" preserveAspectRatio="xMidYMid meet">
	<g transform="matrix(1, 0, 0, 1, 160, 160)">
		<path d="M-126.54,-121.93 L-148.56,-121.19 L-147.91,33.15 L-127.09,33.29 L-126.8,3.07 L-126.8,3.06 L-126.52,-25.29 L-74.81,33.08 L-47.23,33.6 C-48.27,33.08 -49.84,31.88 -50.98,31.23 C-48.22,32.81 -45.15,33.87 -41.76,34.23 C-28.96,30.41 -20.59,16.44 -20.18,0 C-20.09,-7.74 -20.99,-15.47 -24.5,-19.97 L-11.06,-20.26 L-11.19,32.45 L5.29,32.41 L5.56,-22.1 L20.82,-22.29 L20.99,32.28 L64.16,31.83 L64.32,20.51 L28.52,20.63 L28.33,2.54 L54.65,2.29 L54.61,-4.93 L28.29,-4.92 L28.38,-22.35 L74.63,-22.82 L75.01,42.68 C107.47,38.45 129.02,49.3 139.68,75.23 C135.04,90.71 118.14,110.47 85.38,120.36 C88.15,121.17 92.02,120.85 96.22,120.08 C96.44,120.04 96.78,120.04 96.97,120 C97.56,119.86 98.13,119.69 98.8,119.52 C119.63,114.54 150.3,94.5 150.82,75.41 C151,68.69 147.69,62.22 141.23,55.97 C139.99,54.75 138.38,53.38 136.92,52.18 C136.68,51.99 136.48,51.8 136.24,51.61 C136.01,51.43 135.7,51.14 135.51,50.99 C133.89,49.78 132.48,48.79 132.36,48.79 C132.36,48.79 132.36,48.92 132.36,48.92 C127.61,45.68 122.13,42.49 115.61,39.37 C113.44,38.34 111.03,37.2 109.73,36.65 C108.02,35.91 104.79,34.59 102.56,33.7 C102.55,33.7 102.55,33.7 102.54,33.7 C100.68,32.96 99.35,32.18 97.38,31.45 L116.53,8.42 L125.31,17.58 L120.37,3.16 L150.78,-33.58 L91.26,-33.9 L91.7,-67.37 L74.38,-67.3 L74.18,-34.46 L5.78,-33.63 L5.5,-65.69 L-10.77,-65.93 L-11.72,-33.15 C-24.35,-33.18 -35.02,-33.67 -43.72,-34.63 C-54.31,-34.18 -61.19,-24.49 -65.37,-9.48 C-65.55,-8.8 -65.76,-8.11 -65.88,-7.61 C-66,-7.15 -66.17,-6.31 -66.33,-5.6 C-66.77,-3.69 -67.36,-2.06 -67.73,0 C-66.54,12.62 -61.43,24.07 -52.88,30.03 C-71.79,18.73 -102.3,-7.46 -123.88,-31.89 C-122.31,-32.12 -121.25,-32.58 -119.74,-32.83 C-118.33,-33.07 -116.78,-33.33 -115.63,-33.54 C-114.05,-33.84 -111.88,-34.27 -110.83,-34.51 C-109.77,-34.74 -107.92,-35.18 -106.71,-35.48 C-105.5,-35.78 -103.46,-36.32 -102.18,-36.69 C-101.83,-36.79 -101.33,-36.97 -100.89,-37.1 C-76.23,-44.61 -63.28,-57.34 -62.88,-75.65 C-64.96,-96.47 -81.29,-109.29 -105.79,-116.83 C-106.65,-117.1 -107.67,-117.44 -108.21,-117.6 C-109.42,-117.94 -111.77,-118.56 -113.43,-118.97 C-115.09,-119.38 -117.47,-119.93 -118.72,-120.2 C-119.68,-120.4 -121.22,-120.69 -122.57,-120.95 C-123.98,-121.22 -125.1,-121.68 -126.54,-121.93 ZM-125.76,-108.7 C-99.48,-106.18 -77.73,-96.85 -74.75,-76.58 C-77.55,-57.51 -94.86,-43.05 -126.66,-33.19 L-125.76,-108.7 ZM-43.45,-30.31 C-31.61,-27.6 -26.04,-16.96 -26.9,-0.17 C-27.51,16.94 -32.51,27.62 -41.89,31.87 C-49.81,31.9 -58.3,16.14 -59.47,0 C-59.03,-15.42 -55.36,-27.02 -43.45,-30.31 ZM129.75,-22.78 L116.59,-6.21 L112.58,-13.14 L99.45,-13.21 L111.59,0 L92.29,26.79 L91.95,-22.56 L129.75,-22.78 Z" fill-rule="evenodd" style="fill:#000000;stroke:#FFFFFF00;stroke-linecap:round;stroke-linejoin:round;stroke-width:0.55;" />
		<path d="M1.13,-121.93 L-43.42,-121.5 L-39.9,-76.33 L-2.69,-76.73 L1.13,-121.93 ZM-36.57,-114.67 L-6.09,-114.5 L-10.54,-83.81 L-32.22,-83.46 L-36.57,-114.67 Z" fill-rule="evenodd" style="fill:#000000;stroke:#FFFFFF00;stroke-linecap:round;stroke-linejoin:round;stroke-width:0.55;" />
		<path d="M31.03,-120.93 L31.59,-114.23 L63.87,-114.15 L64.26,-120.77 L31.03,-120.93 ZM20.65,-104.54 L21.21,-98.52 L47.61,-98.49 L47.31,-88.69 C42.57,-79.96 36.48,-74.54 29.85,-73.08 L20.86,-72.98 L21.08,-65.81 L31.84,-65.79 C39.47,-66.15 50.74,-77.13 53.84,-87.82 L53.68,-98.47 L75.42,-98.86 L75.79,-102.11 L69.26,-105.32 L20.65,-104.54 Z" fill-rule="evenodd" style="fill:#000000;stroke:#FFFFFF00;stroke-linecap:round;stroke-linejoin:round;stroke-width:0.55;" />
		<path d="M104.18,-122.76 L108.62,-99.27 L112.91,-98.44 L112.62,-122.72 L104.18,-122.76 ZM96.26,-121.93 L88.47,-121.68 L90.56,-97.37 L95.6,-97.03 L96.26,-121.93 ZM130.22,-121.04 C130.45,-117.54 130.33,-114.17 129.61,-111.06 C125.67,-101.74 120.09,-92.92 111.29,-85.12 C105.86,-80.31 100.58,-77.68 95.52,-77.7 L95.9,-70.79 C100.37,-70.85 102.12,-71.12 107.05,-72.34 C110.04,-73.82 115.24,-76.3 119.11,-80.04 C129.6,-92.38 137.28,-104.37 138.95,-114.48 L139.4,-121.04 L130.22,-121.04 Z" fill-rule="evenodd" style="fill:#000000;stroke:#FFFFFF00;stroke-linecap:round;stroke-linejoin:round;stroke-width:0.55;" />
	</g>
</svg>