<?xml version="1.0" encoding="UTF-8"?>
<!-- Created with Grafika (https://www.grafika.cc/) -->
<svg xmlns="http://www.w3.org/2000/svg" xmlns:svg="http://www.w3.org/2000/svg" xmlns:xlink="http://www.w3.org/1999/xlink" width="960" height="960" viewBox="0 0 320 320" preserveAspectRatio="xMidYMid meet">
	<g transform="matrix(1, 0, 0, 1, 160, 160)">
		<path d="M-126.54,-121.93 L-148.56,-121.19 L-147.91,33.15 L-127.09,33.29 L-126.8,3.07 L-126.8,3.06 L-126.52,-25.29 L-74.81,33.08 L-47.23,33.6 C-48.27,33.08 -49.84,31.88 -50.98,31.23 C-48.22,32.81 -45.15,33.87 -41.76,34.23 C-28.96,30.41 -20.59,16.44 -20.18,0 C-20.09,-7.74 -20.99,-15.47 -24.5,-19.97 L-11.06,-20.26 L-11.19,32.45 L5.29,32.41 L5.56,-22.1 L20.82,-22.29 L20.99,32.28 L64.16,31.83 L64.32,20.51 L28.52,20.63 L28.33,2.54 L54.65,2.29 L54.61,-4.93 L28.29,-4.92 L28.38,-22.35 L74.63,-22.82 L75.01,42.68 C107.47,38.45 129.02,49.3 139.68,75.23 C135.04,90.71 118.14,110.47 85.38,120.36 C88.15,121.17 92.02,120.85 96.22,120.08 C96.44,120.04 96.78,120.04 96.97,120 C97.56,119.86 98.13,119.69 98.8,119.52 C119.63,114.54 150.3,94.5 150.82,75.41 C151,68.69 147.69,62.22 141.23,55.97 C139.99,54.75 138.38,53.38 136.92,52.18 C136.68,51.99 136.48,51.8 136.24,51.61 C136.01,51.43 135.7,51.14 135.51,50.99 C133.89,49.78 132.48,48.79 132.36,48.79 C132.36,48.79 132.36,48.92 132.36,48.92 C127.61,45.68 122.13,42.49 115.61,39.37 C113.44,38.34 111.03,37.2 109.73,36.65 C108.02,35.91 104.79,34.59 102.56,33.7 C102.55,33.7 102.55,33.7 102.54,33.7 C100.68,32.96 99.35,32.18 97.38,31.45 L116.53,8.42 L125.31,17.58 L120.37,3.16 L150.78,-33.58 L91.26,-33.9 L91.7,-67.37 L74.38,-67.3 L74.18,-34.46 L5.78,-33.63 L5.5,-65.69 L-10.77,-65.93 L-11.72,-33.15 C-24.35,-33.18 -35.02,-33.67 -43.72,-34.63 C-54.31,-34.18 -61.19,-24.49 -65.37,-9.48 C-65.55,-8.8 -65.76,-8.11 -65.88,-7.61 C-66,-7.15 -66.17,-6.31 -66.33,-5.6 C-66.77,-3.69 -67.36,-2.06 -67.73,0 C-66.54,12.62 -61.43,24.07 -52.88,30.03 C-71.79,18.73 -102.3,-7.46 -123.88,-31.89 C-122.31,-32.12 -121.25,-32.58 -119.74,-32.83 C-118.33,-33.07 -116.78,-33.33 -115.63,-33.54 C-114.05,-33.84 -111.88,-34.27 -110.83,-34.51 C-109.77,-34.74 -107.92,-35.18 -106.71,-35.48 C-105.5,-35.78 -103.46,-36.32 -102.18,-36.69 C-101.83,-36.79 -101.33,-36.97 -100.89,-37.1 C-76.23,-44.61 -63.28,-57.34 -62.88,-75.65 C-64.96,-96.47 -81.29,-109.29 -105.79,-116.83 C-106.65,-117.1 -107.67,-117.44 -108.21,-117.6 C-109.42,-117.94 -111.77,-118.56 -113.43,-118.97 C-115.09,-119.38 -117.47,-119.93 -118.72,-120.2 C-119.68,-120.4 -121.22,-120.69 -122.57,-120.95 C-123.98,-121.22 -125.1,-121.68 -126.54,-121.93 ZM-125.76,-108.7 C-99.48,-106.18 -77.73,-96.85 -74.75,-76.58 C-77.55,-57.51 -94.86,-43.05 -126.66,-33.19 L-125.76,-108.7 ZM-43.45,-30.31 C-31.61,-27.6 -26.04,-16.96 -26.9,-0.17 C-27.51,16.94 -32.51,27.62 -41.89,31.87 C-49.81,31.9 -58.3,16.14 -59.47,0 C-59.03,-15.42 -55.36,-27.02 -43.45,-30.31 ZM129.75,-22.78 L116.59,-6.21 L112.58,-13.14 L99.45,-13.21 L111.59,0 L92.29,26.79 L91.95,-22.56 L129.75,-22.78 Z" fill-rule="evenodd" style="fill:#000000;stroke:#FFFFFF00;stroke-linecap:round;stroke-linejoin:round;stroke-width:0.55;" />
		<path d="M1.13,-121.93 L-43.42,-121.5 L-39.9,-76.33 L-2.69,-76.73 L1.13,-121.93 ZM-36.57,-114.67 L-6.09,-114.5 L-10.54,-83.81 L-32.22,-83.46 L-36.57,-114.67 Z" fill-rule="evenodd" style="fill:#000000;stroke:#FFFFFF00;stroke-linecap:round;stroke-linejoin:round;stroke-width:0.55;" />
		<path d="M31.03,-120.93 L31.59,-114.23 L63.87,-114.15 L64.26,-120.77 L31.03,-120.93 ZM20.65,-104.54 L21.21,-98.52 L47.61,-98.49 L47.31,-88.69 C42.57,-79.96 36.48,-74.54 29.85,-73.08 L20.86,-72.98 L21.08,-65.81 L31.84,-65.79 C39.47,-66.15 50.74,-77.13 53.84,-87.82 L53.68,-98.47 L75.42,-98.86 L75.79,-102.11 L69.26,-105.32 L20.65,-104.54 Z" fill-rule="evenodd" style="fill:#000000;stroke:#FFFFFF00;stroke-linecap:round;stroke-linejoin:round;stroke-width:0.55;" />
		<path d="M104.18,-122.76 L108.62,-99.27 L112.91,-98.44 L112.62,-122.72 L104.18,-122.76 ZM96.26,-121.93 L88.47,-121.68 L90.56,-97.37 L95.6,-97.03 L96.26,-121.93 ZM130.22,-121.04 C130.45,-117.54 130.33,-114.17 129.61,-111.06 C125.67,-101.74 120.09,-92.92 111.29,-85.12 C105.86,-80.31 100.58,-77.68 95.52,-77.7 L95.9,-70.79 C100.37,-70.85 102.12,-71.12 107.05,-72.34 C110.04,-73.82 115.24,-76.3 119.11,-80.04 C129.6,-92.38 137.28,-104.37 138.95,-114.48 L139.4,-121.04 L130.22,-121.04 Z" fill-rule="evenodd" style="fill:#000000;stroke:#FFFFFF00;stroke-linecap:round;stroke-linejoin:round;stroke-width:0.55;" />
		<g transform="matrix(0.6342015862464905, 0, 0, 0.6342015862464905, -108.51968383789062, 88.25833892822266)">
			<path d="M-13.37,-9.27 L-13.37,-12.26 L-28.7,-12.26 L-28.7,-9.27 L-34.04,-9.27 L-34.04,-33.27 L-37.44,-31.94 L-39.51,-36.81 L-39.51,-32.33 L-46.51,-32.33 L-46.51,-19.54 Q-44.24,-20.07 -42.18,-20.63 Q-40.11,-21.2 -38.37,-21.73 L-38.37,-16.4 Q-40.65,-15.73 -43.71,-14.96 Q-46.77,-14.2 -50.07,-13.43 Q-53.37,-12.67 -56.65,-12.07 Q-59.9,-11.46 -62.51,-11.07 L-63.71,-16.4 Q-62.98,-16.46 -62.25,-16.53 Q-61.51,-16.61 -60.78,-16.74 L-60.78,-41.26 L-55.98,-41.26 L-55.98,-17.6 Q-53.77,-17.94 -51.63,-18.4 L-51.63,-46.26 L-61.24,-46.26 L-61.24,-67.6 L-39.51,-67.6 L-39.51,-52.07 Q-37.51,-53.8 -35.85,-55.93 Q-34.17,-58.06 -32.83,-60.36 Q-31.5,-62.67 -30.54,-65.06 Q-29.58,-67.47 -28.98,-69.67 L-23.51,-68.87 Q-23.9,-67.53 -24.37,-66.23 Q-24.84,-64.93 -25.38,-63.6 L-7.83,-63.6 L-7.83,-58.79 Q-10.57,-50.93 -16.64,-44.8 Q-13.58,-42.47 -10.11,-40.79 Q-6.65,-39.13 -2.77,-37.8 L-4.77,-32.33 Q-6.24,-32.87 -8.05,-33.73 L-8.05,-9.2 L-13.37,-9.27 ZM-39.51,-37.33 Q-35.37,-38.6 -31.61,-40.43 Q-27.84,-42.27 -24.5,-44.73 Q-26.37,-46.6 -28.05,-48.7 Q-29.71,-50.8 -31.04,-53.2 Q-32.23,-51.54 -33.53,-49.96 Q-34.84,-48.39 -36.3,-46.99 L-39.51,-52.01 L-39.51,-46.26 L-46.51,-46.26 L-46.51,-37.6 L-39.51,-37.6 L-39.51,-37.33 ZM-13.37,-28.99 L-28.7,-28.99 L-28.7,-17.13 L-13.37,-17.13 L-13.37,-28.99 ZM-44.78,-62.6 L-56.04,-62.6 L-56.04,-51.34 L-44.78,-51.34 L-44.78,-62.6 ZM-27.84,-58.34 Q-26.31,-55.26 -24.52,-52.76 Q-22.71,-50.27 -20.58,-48.13 Q-18.38,-50.33 -16.61,-52.85 Q-14.83,-55.39 -13.71,-58.34 L-27.84,-58.34 ZM-8.5,-33.86 Q-15.11,-36.74 -20.64,-41.2 Q-25.9,-36.94 -32.64,-33.86 L-8.5,-33.86 ZM3.69,-11.87 L3.69,-17.47 L28.36,-17.47 L28.36,-69.47 L34.35,-69.47 L34.35,-47.81 L57.89,-47.81 L57.89,-42.06 L34.35,-42.06 L34.35,-17.47 L62.9,-17.47 L62.9,-11.87 L3.69,-11.87 ZM-15.5,65.14 L-15.5,62.4 L-50.71,62.4 L-50.71,65.14 L-56.17,65.14 L-56.17,41.41 L-10.18,41.41 L-10.18,65.14 L-15.5,65.14 ZM-17.57,39.13 L-17.57,23.79 L-27.3,23.79 Q-27.84,28.73 -29.45,32.31 Q-31.04,35.87 -34.04,38.93 L-38.43,35.27 Q-34.84,31.67 -33.62,27 Q-32.38,22.33 -32.38,15.8 L-32.38,7.66 L-29.3,7.66 Q-20.77,7.53 -15.45,6.64 Q-10.11,5.73 -7.57,4.8 L-5.25,9.73 Q-8.05,10.74 -13.35,11.57 Q-18.64,12.4 -26.97,12.73 L-26.97,18.73 L-3.57,18.73 L-3.57,23.79 L-12.18,23.79 L-12.18,39.13 L-17.57,39.13 ZM-35.44,24.07 Q-37.38,24.53 -39.82,25.06 Q-42.24,25.6 -44.98,26.14 L-44.98,30.66 Q-44.98,33.46 -45.32,35.17 Q-45.64,36.86 -46.98,37.81 Q-48.31,38.74 -50.98,39.08 Q-53.64,39.4 -58.24,39.4 L-60.03,34.34 L-56.78,34.34 Q-54.51,34.34 -53.21,34.24 Q-51.91,34.13 -51.28,33.77 Q-50.64,33.4 -50.51,32.7 Q-50.38,32 -50.38,30.79 L-50.38,27.13 Q-53.57,27.67 -56.65,28.14 Q-59.71,28.6 -62.51,28.94 L-63.64,23.73 Q-60.5,23.4 -57.13,22.98 Q-53.77,22.54 -50.38,22 L-50.38,15.2 L-62.31,15.2 L-62.31,10.2 L-50.38,10.2 L-50.38,4.74 L-44.98,4.74 L-44.98,10.2 L-35.7,10.2 L-35.7,15.2 L-44.98,15.2 L-44.98,21.14 Q-42.44,20.67 -40.14,20.21 Q-37.85,19.74 -35.91,19.27 L-35.44,24.07 ZM-15.5,46.53 L-50.71,46.53 L-50.71,57.34 L-15.5,57.34 L-15.5,46.53 ZM37.62,49.33 L37.62,56.13 Q37.62,59 37.15,60.79 Q36.7,62.6 35.02,63.59 Q33.36,64.6 30.09,64.92 Q26.83,65.27 21.3,65.27 L19.09,59.67 Q19.36,59.67 20,59.67 Q20.63,59.67 21.36,59.63 Q22.1,59.6 22.76,59.6 Q23.43,59.6 23.63,59.6 Q26.83,59.54 28.56,59.34 Q30.3,59.13 31.13,58.64 Q31.96,58.14 32.12,57.37 Q32.29,56.61 32.29,55.47 L32.29,49.33 L3.69,49.4 L3.69,44.14 L32.29,44.14 L32.29,38.8 L34.63,38.8 Q36.89,37.6 39.25,36.16 Q41.63,34.73 43.35,33.59 L14.63,33.59 L14.63,28.53 L51.96,28.53 L51.96,32.94 Q48.63,35.59 44.88,37.94 Q41.16,40.27 37.62,42.14 L37.62,44.14 L63.1,44.14 L63.1,49.33 L37.62,49.33 ZM56.03,31.93 L56.03,22.46 L10.62,22.46 L10.62,32 L5.3,32 L5.3,17.4 L14.97,17.4 Q14.37,16.34 13.58,15.07 Q12.82,13.8 11.96,12.5 Q11.09,11.2 10.18,9.98 Q9.29,8.74 8.43,7.73 L13.23,4.74 Q14.09,5.79 15.08,7.16 Q16.09,8.53 17.05,9.98 Q18.03,11.41 18.86,12.71 Q19.69,14 20.23,15.01 L16.09,17.4 L31.83,17.4 Q31.36,16.47 30.66,15.23 Q29.96,14 29.1,12.63 Q28.23,11.26 27.29,9.89 Q26.36,8.53 25.43,7.4 L30.22,4.67 Q31.16,5.94 32.09,7.34 Q33.03,8.74 33.9,10.07 Q34.76,11.41 35.46,12.65 Q36.16,13.87 36.63,14.79 L32.03,17.4 L42.56,17.4 Q45.1,14.6 47.42,11.47 Q49.77,8.33 51.36,4.74 L56.62,7.13 Q55.15,9.99 53.22,12.66 Q51.3,15.33 49.36,17.4 L61.42,17.4 L61.42,31.93 L56.03,31.93 Z" fill="#000000" />
		</g>
		<g transform="matrix(0.6342015862464905, 0, 0, 0.6342015862464905, 80.21508026123047, 65.030517578125)">
			<path d="M-204.71,-26.1 Q-206.46,-26.8 -209.19,-26.8 L-215.22,-26.8 L-215.22,-4.93 L-212.47,-4.93 L-212.47,-13.96 L-208.12,-13.96 L-202.82,-4.93 L-199.61,-4.93 L-205.61,-14.73 Q-204.5,-15.13 -203.51,-15.81 Q-202.52,-16.5 -201.87,-17.67 Q-201.23,-18.84 -201.23,-20.58 Q-201.23,-22.66 -202.09,-24.04 Q-202.94,-25.41 -204.71,-26.1 ZM-212.47,-24.4 L-209.34,-24.4 Q-207.54,-24.4 -206.37,-24.01 Q-205.21,-23.61 -204.65,-22.75 Q-204.08,-21.89 -204.08,-20.46 Q-204.08,-18.4 -205.3,-17.35 Q-206.52,-16.29 -209.19,-16.29 L-212.47,-16.29 L-212.47,-24.4 ZM-183.42,-9.54 Q-182.89,-11.11 -182.89,-13.17 Q-182.89,-15.89 -183.85,-17.77 Q-184.81,-19.66 -186.52,-20.65 Q-188.22,-21.65 -190.45,-21.65 Q-192.81,-21.65 -194.53,-20.65 Q-196.24,-19.66 -197.16,-17.77 Q-198.08,-15.89 -198.08,-13.17 Q-198.08,-11.11 -197.51,-9.54 Q-196.94,-7.97 -195.93,-6.86 Q-194.92,-5.76 -193.55,-5.19 Q-192.16,-4.62 -190.54,-4.62 Q-188.8,-4.62 -187.38,-5.19 Q-185.95,-5.76 -184.96,-6.86 Q-183.95,-7.97 -183.42,-9.54 ZM-194.79,-9.81 Q-195.29,-11.24 -195.29,-13.17 Q-195.29,-16.08 -194.16,-17.73 Q-193.02,-19.38 -190.51,-19.38 Q-188.83,-19.38 -187.77,-18.63 Q-186.71,-17.89 -186.2,-16.5 Q-185.67,-15.13 -185.67,-13.17 Q-185.67,-11.24 -186.18,-9.81 Q-186.68,-8.39 -187.76,-7.62 Q-188.83,-6.86 -190.48,-6.86 Q-192.13,-6.86 -193.21,-7.62 Q-194.28,-8.39 -194.79,-9.81 ZM-168.59,-20.3 Q-170.03,-21.62 -173.02,-21.62 Q-174.62,-21.62 -176.09,-21.21 Q-177.56,-20.79 -178.63,-20.21 L-177.8,-18.19 Q-176.79,-18.68 -175.63,-19.06 Q-174.47,-19.45 -173.18,-19.45 Q-171.56,-19.45 -170.67,-18.65 Q-169.78,-17.86 -169.78,-15.8 L-169.78,-14.82 L-172.57,-14.73 Q-176.57,-14.6 -178.51,-13.27 Q-180.44,-11.94 -180.44,-9.49 Q-180.44,-7.84 -179.77,-6.75 Q-179.09,-5.66 -177.91,-5.14 Q-176.73,-4.62 -175.26,-4.62 Q-173.88,-4.62 -172.92,-4.9 Q-171.95,-5.18 -171.21,-5.77 Q-170.45,-6.37 -169.75,-7.26 L-169.63,-7.26 L-169.11,-4.93 L-167.15,-4.93 L-167.15,-16.11 Q-167.15,-18.98 -168.59,-20.3 ZM-176.47,-11.88 Q-175.29,-12.73 -172.23,-12.86 L-169.81,-12.95 L-169.81,-11.49 Q-169.81,-9.09 -171.19,-7.94 Q-172.57,-6.8 -174.65,-6.8 Q-175.97,-6.8 -176.81,-7.44 Q-177.65,-8.08 -177.65,-9.46 Q-177.65,-11.02 -176.47,-11.88 ZM-161.76,-6.75 Q-159.92,-4.62 -156.86,-4.62 Q-155.58,-4.62 -154.61,-4.96 Q-153.65,-5.3 -152.94,-5.86 Q-152.23,-6.43 -151.75,-7.14 L-151.62,-7.14 L-151.22,-4.93 L-149.05,-4.93 L-149.05,-28.2 L-151.75,-28.2 L-151.75,-21.65 Q-151.75,-21.19 -151.67,-20.41 Q-151.59,-19.63 -151.56,-19.23 L-151.75,-19.23 Q-152.23,-19.9 -152.94,-20.45 Q-153.65,-21 -154.6,-21.32 Q-155.54,-21.65 -156.83,-21.65 Q-159.89,-21.65 -161.74,-19.49 Q-163.6,-17.33 -163.6,-13.11 Q-163.6,-8.88 -161.76,-6.75 ZM-152.77,-8.28 Q-153.83,-6.86 -156.43,-6.86 Q-158.63,-6.86 -159.72,-8.48 Q-160.81,-10.1 -160.81,-13.04 Q-160.81,-15.96 -159.72,-17.68 Q-158.63,-19.41 -156.46,-19.41 Q-153.74,-19.41 -152.73,-17.77 Q-151.71,-16.14 -151.71,-13.08 L-151.71,-12.59 Q-151.71,-9.71 -152.77,-8.28 ZM-134.57,-6.79 Q-133.77,-7.87 -133.77,-9.46 Q-133.77,-10.78 -134.35,-11.65 Q-134.93,-12.53 -136.04,-13.14 Q-137.14,-13.75 -138.7,-14.33 Q-140.26,-14.94 -141.2,-15.38 Q-142.13,-15.83 -142.53,-16.3 Q-142.93,-16.78 -142.93,-17.45 Q-142.93,-18.37 -142.06,-18.91 Q-141.18,-19.45 -139.52,-19.45 Q-138.34,-19.45 -137.21,-19.14 Q-136.07,-18.84 -135.02,-18.4 L-134.1,-20.55 Q-135.24,-21.07 -136.54,-21.35 Q-137.84,-21.65 -139.34,-21.65 Q-142.1,-21.65 -143.8,-20.51 Q-145.5,-19.38 -145.5,-17.3 Q-145.5,-15.96 -144.88,-15.1 Q-144.27,-14.24 -143.14,-13.62 Q-142.01,-13.01 -140.41,-12.4 Q-138.79,-11.79 -137.92,-11.3 Q-137.05,-10.81 -136.71,-10.31 Q-136.37,-9.83 -136.37,-9.21 Q-136.37,-8.11 -137.29,-7.46 Q-138.21,-6.8 -140.26,-6.8 Q-141.7,-6.8 -143.1,-7.21 Q-144.49,-7.62 -145.47,-8.11 L-145.47,-5.66 Q-144.52,-5.18 -143.28,-4.9 Q-142.04,-4.62 -140.32,-4.62 Q-138.31,-4.62 -136.83,-5.17 Q-135.36,-5.72 -134.57,-6.79 ZM-127.94,-27.08 Q-128.41,-27.5 -129.03,-27.5 Q-129.7,-27.5 -130.16,-27.08 Q-130.62,-26.67 -130.62,-25.78 Q-130.62,-24.93 -130.16,-24.49 Q-129.7,-24.07 -129.03,-24.07 Q-128.41,-24.07 -127.94,-24.49 Q-127.46,-24.93 -127.46,-25.78 Q-127.46,-26.67 -127.94,-27.08 ZM-127.7,-4.93 L-127.7,-21.34 L-130.4,-21.34 L-130.4,-4.93 L-127.7,-4.93 ZM-122.2,-6.75 Q-120.36,-4.62 -117.3,-4.62 Q-116.01,-4.62 -115.05,-4.96 Q-114.08,-5.3 -113.38,-5.86 Q-112.67,-6.43 -112.19,-7.14 L-112.06,-7.14 L-111.66,-4.93 L-109.49,-4.93 L-109.49,-28.2 L-112.19,-28.2 L-112.19,-21.65 Q-112.19,-21.19 -112.11,-20.41 Q-112.03,-19.63 -112,-19.23 L-112.19,-19.23 Q-112.67,-19.9 -113.38,-20.45 Q-114.08,-21 -115.03,-21.32 Q-115.98,-21.65 -117.27,-21.65 Q-120.33,-21.65 -122.18,-19.49 Q-124.03,-17.33 -124.03,-13.11 Q-124.03,-8.88 -122.2,-6.75 ZM-113.21,-8.28 Q-114.26,-6.86 -116.87,-6.86 Q-119.07,-6.86 -120.16,-8.48 Q-121.25,-10.1 -121.25,-13.04 Q-121.25,-15.96 -120.16,-17.68 Q-119.07,-19.41 -116.9,-19.41 Q-114.17,-19.41 -113.16,-17.77 Q-112.15,-16.14 -112.15,-13.08 L-112.15,-12.59 Q-112.15,-9.71 -113.21,-8.28 ZM-94.93,-20.73 Q-96.44,-21.65 -98.56,-21.65 Q-100.73,-21.65 -102.37,-20.61 Q-104.01,-19.57 -104.91,-17.64 Q-105.82,-15.71 -105.82,-13.01 Q-105.82,-10.29 -104.82,-8.41 Q-103.82,-6.52 -102.03,-5.57 Q-100.24,-4.62 -97.91,-4.62 Q-96.23,-4.62 -95,-4.89 Q-93.78,-5.15 -92.52,-5.69 L-92.52,-8.05 Q-93.81,-7.5 -95.02,-7.21 Q-96.23,-6.92 -97.79,-6.92 Q-100.24,-6.92 -101.61,-8.37 Q-102.97,-9.83 -103.03,-12.62 L-91.79,-12.62 L-91.79,-14.24 Q-91.79,-16.47 -92.61,-18.14 Q-93.41,-19.81 -94.93,-20.73 ZM-101.64,-18.21 Q-100.51,-19.45 -98.59,-19.45 Q-97.21,-19.45 -96.34,-18.85 Q-95.46,-18.25 -95.03,-17.21 Q-94.61,-16.17 -94.61,-14.76 L-102.97,-14.76 Q-102.75,-16.97 -101.64,-18.21 ZM-203.19,5.36 Q-205.15,3.67 -209.44,3.67 L-215.22,3.67 L-215.22,25.54 L-212.47,25.54 L-212.47,17.02 L-209.95,17.02 Q-207.5,17.02 -205.82,16.46 Q-204.14,15.89 -203.13,14.91 Q-202.12,13.94 -201.68,12.69 Q-201.23,11.45 -201.23,10.11 Q-201.23,7.04 -203.19,5.36 ZM-212.47,6.03 L-209.68,6.03 Q-206.77,6.03 -205.42,7.07 Q-204.08,8.11 -204.08,10.23 Q-204.08,11.82 -204.75,12.8 Q-205.42,13.78 -206.81,14.23 Q-208.18,14.67 -210.26,14.67 L-212.47,14.67 L-212.47,6.03 ZM-195.03,10.29 Q-194.98,9.67 -194.98,9.09 L-194.98,2.27 L-197.68,2.27 L-197.68,25.54 L-194.98,25.54 L-194.98,17.05 Q-194.98,15.12 -194.54,13.79 Q-194.1,12.46 -193.06,11.78 Q-192.01,11.09 -190.17,11.09 Q-188.27,11.09 -187.39,12.07 Q-186.5,13.05 -186.5,15.03 L-186.5,25.54 L-183.83,25.54 L-183.83,14.85 Q-183.83,12.74 -184.51,11.42 Q-185.19,10.11 -186.52,9.48 Q-187.85,8.85 -189.84,8.85 Q-190.88,8.85 -191.86,9.14 Q-192.84,9.44 -193.64,9.99 Q-194.43,10.53 -194.95,11.39 L-195.14,11.39 Q-195.08,10.9 -195.03,10.29 ZM-176.91,3.39 Q-177.38,2.97 -177.99,2.97 Q-178.66,2.97 -179.13,3.39 Q-179.58,3.8 -179.58,4.69 Q-179.58,5.54 -179.13,5.97 Q-178.66,6.4 -177.99,6.4 Q-177.38,6.4 -176.91,5.97 Q-176.43,5.54 -176.43,4.69 Q-176.43,3.8 -176.91,3.39 ZM-176.67,25.54 L-176.67,9.13 L-179.37,9.13 L-179.37,25.54 L-176.67,25.54 ZM-169.38,25.54 L-172.08,25.54 L-172.08,2.27 L-169.38,2.27 L-169.38,25.54 ZM-151.06,20.93 Q-150.52,19.36 -150.52,17.3 Q-150.52,14.58 -151.48,12.69 Q-152.45,10.81 -154.15,9.82 Q-155.85,8.82 -158.08,8.82 Q-160.44,8.82 -162.16,9.82 Q-163.87,10.81 -164.79,12.69 Q-165.71,14.58 -165.71,17.3 Q-165.71,19.36 -165.14,20.93 Q-164.57,22.5 -163.56,23.61 Q-162.56,24.71 -161.18,25.28 Q-159.8,25.84 -158.17,25.84 Q-156.43,25.84 -155.01,25.28 Q-153.58,24.71 -152.59,23.61 Q-151.59,22.5 -151.06,20.93 ZM-162.42,20.66 Q-162.92,19.23 -162.92,17.3 Q-162.92,14.39 -161.79,12.74 Q-160.66,11.09 -158.14,11.09 Q-156.46,11.09 -155.41,11.83 Q-154.35,12.58 -153.83,13.97 Q-153.31,15.34 -153.31,17.3 Q-153.31,19.23 -153.82,20.66 Q-154.32,22.08 -155.39,22.85 Q-156.46,23.61 -158.11,23.61 Q-159.77,23.61 -160.84,22.85 Q-161.91,22.08 -162.42,20.66 ZM-136.99,23.68 Q-136.19,22.6 -136.19,21.01 Q-136.19,19.69 -136.77,18.82 Q-137.35,17.94 -138.46,17.33 Q-139.56,16.72 -141.12,16.14 Q-142.68,15.53 -143.62,15.09 Q-144.55,14.64 -144.95,14.17 Q-145.34,13.69 -145.34,13.02 Q-145.34,12.1 -144.48,11.56 Q-143.6,11.02 -141.94,11.02 Q-140.75,11.02 -139.63,11.33 Q-138.49,11.63 -137.44,12.07 L-136.52,9.92 Q-137.66,9.4 -138.96,9.11 Q-140.26,8.82 -141.76,8.82 Q-144.51,8.82 -146.22,9.96 Q-147.92,11.09 -147.92,13.17 Q-147.92,14.51 -147.3,15.37 Q-146.69,16.23 -145.56,16.84 Q-144.43,17.46 -142.83,18.07 Q-141.21,18.68 -140.34,19.17 Q-139.47,19.66 -139.13,20.16 Q-138.79,20.64 -138.79,21.25 Q-138.79,22.35 -139.71,23.01 Q-140.63,23.67 -142.68,23.67 Q-144.12,23.67 -145.52,23.26 Q-146.91,22.85 -147.89,22.35 L-147.89,24.81 Q-146.94,25.29 -145.7,25.57 Q-144.46,25.84 -142.74,25.84 Q-140.72,25.84 -139.25,25.3 Q-137.78,24.75 -136.99,23.68 ZM-119.09,20.93 Q-118.55,19.36 -118.55,17.3 Q-118.55,14.58 -119.51,12.69 Q-120.48,10.81 -122.18,9.82 Q-123.88,8.82 -126.12,8.82 Q-128.47,8.82 -130.19,9.82 Q-131.9,10.81 -132.82,12.69 Q-133.74,14.58 -133.74,17.3 Q-133.74,19.36 -133.17,20.93 Q-132.61,22.5 -131.6,23.61 Q-130.59,24.71 -129.21,25.28 Q-127.83,25.84 -126.21,25.84 Q-124.46,25.84 -123.04,25.28 Q-121.62,24.71 -120.62,23.61 Q-119.62,22.5 -119.09,20.93 ZM-130.45,20.66 Q-130.95,19.23 -130.95,17.3 Q-130.95,14.39 -129.82,12.74 Q-128.69,11.09 -126.18,11.09 Q-124.49,11.09 -123.44,11.83 Q-122.38,12.58 -121.86,13.97 Q-121.34,15.34 -121.34,17.3 Q-121.34,19.23 -121.85,20.66 Q-122.35,22.08 -123.42,22.85 Q-124.49,23.61 -126.15,23.61 Q-127.8,23.61 -128.87,22.85 Q-129.94,22.08 -130.45,20.66 ZM-102.21,10.94 Q-104.07,8.82 -107.1,8.82 Q-108.41,8.82 -109.38,9.16 Q-110.35,9.49 -111.04,10.08 Q-111.72,10.65 -112.21,11.36 L-112.34,11.36 L-112.7,9.13 L-114.91,9.13 L-114.91,32.89 L-112.21,32.89 L-112.21,26.15 Q-112.21,25.57 -112.28,24.78 Q-112.34,23.98 -112.4,23.45 L-112.21,23.45 Q-111.72,24.1 -111.04,24.63 Q-110.35,25.17 -109.37,25.51 Q-108.38,25.84 -107.13,25.84 Q-105.08,25.84 -103.57,24.88 Q-102.05,23.92 -101.21,22 Q-100.36,20.09 -100.36,17.3 Q-100.36,13.05 -102.21,10.94 ZM-110.25,11.72 Q-109.24,11.09 -107.59,11.09 Q-105.32,11.09 -104.24,12.77 Q-103.15,14.45 -103.15,17.27 Q-103.15,19.11 -103.63,20.54 Q-104.1,21.96 -105.06,22.79 Q-106.03,23.61 -107.53,23.61 Q-109.3,23.61 -110.33,22.88 Q-111.36,22.14 -111.78,20.73 Q-112.21,19.33 -112.21,17.3 L-112.21,16.78 Q-112.18,14.85 -111.72,13.6 Q-111.26,12.34 -110.25,11.72 ZM-94.04,10.29 Q-93.99,9.67 -93.99,9.09 L-93.99,2.27 L-96.69,2.27 L-96.69,25.54 L-93.99,25.54 L-93.99,17.05 Q-93.99,15.12 -93.55,13.79 Q-93.11,12.46 -92.07,11.78 Q-91.02,11.09 -89.18,11.09 Q-87.28,11.09 -86.4,12.07 Q-85.51,13.05 -85.51,15.03 L-85.51,25.54 L-82.84,25.54 L-82.84,14.85 Q-82.84,12.74 -83.52,11.42 Q-84.2,10.11 -85.53,9.48 Q-86.86,8.85 -88.85,8.85 Q-89.89,8.85 -90.87,9.14 Q-91.85,9.44 -92.65,9.99 Q-93.44,10.53 -93.96,11.39 L-94.15,11.39 Q-94.09,10.9 -94.04,10.29 ZM-75.92,3.39 Q-76.39,2.97 -77,2.97 Q-77.67,2.97 -78.14,3.39 Q-78.59,3.8 -78.59,4.69 Q-78.59,5.54 -78.14,5.97 Q-77.67,6.4 -77,6.4 Q-76.39,6.4 -75.92,5.97 Q-75.44,5.54 -75.44,4.69 Q-75.44,3.8 -75.92,3.39 ZM-75.68,25.54 L-75.68,9.13 L-78.38,9.13 L-78.38,25.54 L-75.68,25.54 ZM-68.38,24.96 Q-66.68,25.84 -64.5,25.84 Q-63.1,25.84 -62.1,25.61 Q-61.11,25.39 -60.28,24.96 L-60.28,22.57 Q-61.14,22.97 -62.16,23.24 Q-63.19,23.52 -64.53,23.52 Q-66.1,23.52 -67.14,22.82 Q-68.18,22.11 -68.71,20.73 Q-69.22,19.36 -69.22,17.39 Q-69.22,15.34 -68.71,13.97 Q-68.18,12.58 -67.11,11.88 Q-66.04,11.18 -64.38,11.18 Q-63.52,11.18 -62.54,11.42 Q-61.57,11.67 -60.83,11.94 L-60,9.7 Q-60.74,9.34 -61.9,9.08 Q-63.07,8.82 -64.32,8.82 Q-66.53,8.82 -68.26,9.71 Q-69.98,10.59 -71,12.49 Q-72.01,14.39 -72.01,17.43 Q-72.01,20.33 -71.05,22.2 Q-70.08,24.07 -68.38,24.96 ZM-46.35,10.17 Q-47.79,8.85 -50.78,8.85 Q-52.38,8.85 -53.85,9.26 Q-55.32,9.67 -56.39,10.26 L-55.56,12.28 Q-54.55,11.79 -53.39,11.41 Q-52.23,11.02 -50.94,11.02 Q-49.32,11.02 -48.43,11.82 Q-47.54,12.61 -47.54,14.67 L-47.54,15.65 L-50.33,15.74 Q-54.34,15.86 -56.27,17.2 Q-58.2,18.53 -58.2,20.98 Q-58.2,22.63 -57.53,23.72 Q-56.85,24.81 -55.67,25.33 Q-54.49,25.84 -53.02,25.84 Q-51.64,25.84 -50.68,25.57 Q-49.72,25.29 -48.97,24.69 Q-48.21,24.1 -47.51,23.21 L-47.39,23.21 L-46.87,25.54 L-44.91,25.54 L-44.91,14.36 Q-44.91,11.48 -46.35,10.17 ZM-54.23,18.59 Q-53.05,17.73 -49.99,17.61 L-47.57,17.52 L-47.57,18.98 Q-47.57,21.37 -48.95,22.53 Q-50.33,23.67 -52.41,23.67 Q-53.73,23.67 -54.57,23.03 Q-55.41,22.38 -55.41,21.01 Q-55.41,19.45 -54.23,18.59 ZM-37.74,25.54 L-40.44,25.54 L-40.44,2.27 L-37.74,2.27 L-37.74,25.54 ZM-23.26,23.68 Q-22.46,22.6 -22.46,21.01 Q-22.46,19.69 -23.04,18.82 Q-23.63,17.94 -24.73,17.33 Q-25.83,16.72 -27.39,16.14 Q-28.96,15.53 -29.89,15.09 Q-30.83,14.64 -31.22,14.17 Q-31.62,13.69 -31.62,13.02 Q-31.62,12.1 -30.75,11.56 Q-29.88,11.02 -28.22,11.02 Q-27.03,11.02 -25.9,11.33 Q-24.76,11.63 -23.72,12.07 L-22.8,9.92 Q-23.93,9.4 -25.23,9.11 Q-26.53,8.82 -28.04,8.82 Q-30.79,8.82 -32.49,9.96 Q-34.19,11.09 -34.19,13.17 Q-34.19,14.51 -33.58,15.37 Q-32.96,16.23 -31.83,16.84 Q-30.7,17.46 -29.11,18.07 Q-27.48,18.68 -26.62,19.17 Q-25.74,19.66 -25.41,20.16 Q-25.06,20.64 -25.06,21.25 Q-25.06,22.35 -25.98,23.01 Q-26.9,23.67 -28.96,23.67 Q-30.39,23.67 -31.79,23.26 Q-33.18,22.85 -34.16,22.35 L-34.16,24.81 Q-33.21,25.29 -31.97,25.57 Q-30.73,25.84 -29.02,25.84 Q-27,25.84 -25.52,25.3 Q-24.05,24.75 -23.26,23.68 Z" fill="#000000" />
		</g>
		<g transform="matrix(0.6342015862464905, 0, 0, 0.6342015862464905, -4.325258255004883, 113.99848937988281)">
			<path d="M-89.64,25.1 L-89.64,27.97 L-94.98,27.97 L-94.98,7.64 L-74.31,7.64 L-74.31,25.17 L-89.64,25.1 ZM-70.11,-12.36 L-70.11,-17.04 L-57.71,-17.04 L-57.71,-22.57 L-71.98,-22.57 L-71.98,-27.37 L-57.71,-27.37 L-57.71,-32.56 L-52.17,-32.56 L-52.17,-27.37 L-37.51,-27.37 L-37.51,-22.57 L-52.17,-22.57 L-52.17,-17.04 L-39.38,-17.04 L-39.38,-12.36 L-70.11,-12.36 ZM-42.85,6.03 L-42.85,-3.04 L-66.84,-3.04 L-66.84,6.03 L-72.24,6.03 L-72.24,-7.84 L-37.38,-7.84 L-37.38,6.03 L-42.85,6.03 ZM-47.44,26.31 Q-49.05,26.31 -50.09,26.03 Q-51.11,25.77 -51.72,25.14 Q-52.3,24.5 -52.51,23.43 Q-52.71,22.37 -52.71,20.84 L-52.71,1.44 L-47.44,1.44 L-47.44,19.23 Q-47.44,20.63 -47.17,20.94 Q-46.91,21.23 -45.84,21.23 L-44.51,21.23 Q-42.91,21.23 -42.34,20.4 Q-41.77,19.57 -41.58,16.96 Q-41.51,15.83 -41.45,14.83 Q-41.38,13.97 -41.32,13.07 Q-41.23,12.16 -41.17,11.71 L-36.3,14.51 Q-36.64,18.43 -37.08,20.77 Q-37.51,23.1 -38.3,24.34 Q-39.1,25.57 -40.37,25.93 Q-41.64,26.31 -43.64,26.31 L-47.44,26.31 ZM-73.98,23.1 Q-70.51,21.7 -68.32,19.8 Q-66.1,17.89 -64.85,15.34 Q-63.58,12.77 -63.11,9.54 Q-62.64,6.3 -62.64,2.23 L-62.64,1.44 L-57.44,1.44 Q-57.51,6.63 -58.08,10.73 Q-58.63,14.83 -60.18,18.04 Q-61.71,21.23 -64.35,23.69 Q-66.97,26.16 -71.1,28.16 L-73.98,23.1 ZM-96.91,-15.7 L-96.91,-20.7 L-72.44,-20.7 L-72.44,-15.7 L-96.91,-15.7 ZM-94.25,-25.37 L-94.25,-30.3 L-75.04,-30.3 L-75.04,-25.37 L-94.25,-25.37 ZM-94.25,3.03 L-94.25,-1.7 L-75.04,-1.7 L-75.04,3.03 L-94.25,3.03 ZM-94.25,-6.23 L-94.25,-10.97 L-75.04,-10.97 L-75.04,-6.23 L-94.25,-6.23 ZM-79.3,12.44 L-89.92,12.44 L-89.92,20.24 L-79.3,20.24 L-79.3,12.44 ZM-29.43,2.71 L-29.43,-1.3 L-3.03,-1.3 L-3.03,-4.63 L-25.64,-4.63 L-25.64,-8.17 L-3.03,-8.17 L-3.03,-11.5 L-23.64,-11.5 L-23.64,-14.97 L-3.03,-14.97 L-3.03,-18.31 L-29.04,-18.31 L-29.04,-21.97 L-3.03,-21.97 L-3.03,-25.24 L-23.7,-25.24 L-23.7,-28.97 L-3.03,-28.97 L-3.03,-32.43 L2.63,-32.43 L2.63,-28.97 L22.89,-28.97 L22.89,-21.97 L29.09,-21.97 L29.09,-18.31 L22.89,-18.31 L22.89,-11.5 L2.63,-11.5 L2.63,-8.17 L25.63,-8.17 L25.63,-4.63 L2.63,-4.63 L2.63,-1.3 L29.42,-1.3 L29.42,2.71 L-29.43,2.71 ZM17.56,28.03 L17.56,24.97 L-17.44,24.97 L-17.44,28.03 L-22.91,28.03 L-22.91,6.17 L22.96,6.17 L22.96,28.03 L17.56,28.03 ZM17.56,9.84 L-17.44,9.84 L-17.44,13.84 L17.56,13.84 L17.56,9.84 ZM17.56,17.31 L-17.44,17.31 L-17.44,21.16 L17.56,21.16 L17.56,17.31 ZM17.56,-18.31 L2.63,-18.31 L2.63,-14.97 L17.56,-14.97 L17.56,-18.31 ZM17.56,-25.24 L2.63,-25.24 L2.63,-21.97 L17.56,-21.97 L17.56,-25.24 ZM90.55,28.03 Q89.5,26.57 88.16,24.86 Q86.83,23.17 85.36,21.29 Q80.75,22.17 75.45,22.87 Q70.16,23.57 64.5,24.06 Q58.83,24.57 52.92,24.89 Q47.03,25.23 41.16,25.49 L40.03,19.57 Q41.95,19.57 43.92,19.57 Q45.89,19.57 47.89,19.5 Q50.89,16.49 53.59,12.99 Q56.29,9.49 58.42,5.7 L39.22,5.7 L39.22,0.36 L94.17,0.36 L94.17,5.7 L65.16,5.7 Q62.97,9.71 60.39,13.07 Q57.82,16.43 55.09,19.23 Q61.96,18.9 68.69,18.33 Q75.43,17.76 81.7,16.83 L75.43,9.49 L79.89,6.43 Q81.36,7.96 83.36,10.24 Q85.36,12.5 87.49,14.95 Q89.63,17.37 91.63,19.78 Q93.63,22.17 95.03,23.96 L90.55,28.03 ZM94.09,-8.51 Q89.95,-10.23 85.98,-12.4 Q82.02,-14.56 78.53,-16.99 Q75.03,-19.43 72.01,-21.97 Q69.02,-24.51 66.76,-26.96 Q62.36,-21.9 55.49,-17 Q48.63,-12.1 39.36,-8.57 L36.03,-14.11 Q40.7,-15.7 44.9,-17.83 Q49.1,-19.97 52.66,-22.36 Q56.23,-24.77 59.03,-27.26 Q61.83,-29.76 63.7,-32.17 L69.69,-32.17 Q71.69,-29.83 74.59,-27.32 Q77.5,-24.83 81.1,-22.42 Q84.69,-20.03 88.86,-17.9 Q93.03,-15.77 97.63,-14.17 L94.09,-8.51 ZM50.82,-7.3 L50.82,-12.56 L83.62,-12.56 L83.62,-7.3 L50.82,-7.3 Z" fill="#000000" />
		</g>
	</g>
</svg>